<?xml version="1.0" standalone="no"?>
<!DOCTYPE svg PUBLIC "-//W3C//DTD SVG 20010904//EN"
 "http://www.w3.org/TR/2001/REC-SVG-20010904/DTD/svg10.dtd">
<svg version="1.0" xmlns="http://www.w3.org/2000/svg"
 width="300.000000pt" height="300.000000pt" viewBox="0 0 300.000000 300.000000"
 preserveAspectRatio="xMidYMid meet">
<metadata>
Created by potrace 1.11, written by Peter Selinger 2001-2013
</metadata>
<g transform="translate(0.000000,300.000000) scale(0.100000,-0.100000)"
fill="#000000" stroke="none">
<path d="M557 2993 c-4 -3 -2 -12 5 -20 8 -11 8 -17 -2 -26 -10 -9 -11 -9 -6
1 4 6 5 12 2 12 -3 0 -13 -14 -21 -30 -9 -17 -20 -28 -24 -25 -5 3 -20 -4 -32
-16 -13 -11 -17 -17 -9 -13 13 7 13 5 1 -9 -14 -18 -26 -23 -17 -8 3 5 -1 11
-9 14 -9 4 -12 1 -8 -9 3 -9 -1 -14 -13 -14 -14 0 -16 -2 -6 -9 10 -6 9 -10
-7 -14 -14 -3 -19 -10 -15 -21 4 -9 1 -16 -6 -16 -9 0 -9 -4 1 -17 8 -9 9 -14
3 -10 -7 4 -15 0 -18 -9 -3 -8 -2 -13 2 -10 5 3 9 -1 9 -8 0 -8 -7 -12 -15 -9
-11 5 -13 1 -7 -18 7 -21 6 -22 -9 -10 -15 13 -16 12 -7 -12 9 -22 8 -25 -7
-20 -9 3 -14 3 -10 -2 4 -4 3 -14 -4 -22 -9 -11 -7 -12 8 -8 12 4 10 1 -5 -8
-18 -11 -20 -16 -10 -20 11 -4 11 -6 1 -6 -7 -1 -10 -5 -7 -11 3 -5 1 -10 -6
-10 -9 0 -9 -3 0 -14 10 -11 8 -17 -6 -25 -14 -8 -15 -11 -3 -12 8 -1 19 -1
23 0 5 1 5 -3 2 -9 -4 -6 -14 -9 -23 -5 -12 4 -12 1 4 -16 10 -12 13 -19 5
-14 -9 5 -12 3 -9 -6 3 -8 11 -13 17 -11 7 1 9 -2 6 -8 -4 -6 -14 -9 -23 -5
-12 4 -12 1 4 -16 10 -12 14 -19 8 -16 -16 9 -27 -22 -14 -38 5 -6 7 -15 3
-19 -4 -3 -8 -13 -9 -22 -2 -11 1 -12 11 -4 10 8 15 8 21 -1 4 -8 3 -9 -4 -5
-7 4 -12 4 -13 -1 -5 -55 -4 -63 11 -58 12 4 11 2 -2 -8 -15 -12 -15 -14 0
-25 9 -7 11 -10 5 -7 -7 3 -13 1 -13 -5 0 -6 -5 -8 -12 -4 -7 4 -8 3 -4 -5 4
-6 13 -8 19 -4 7 4 6 0 -2 -10 -11 -14 -11 -17 0 -17 11 0 11 -2 -1 -10 -11
-7 -11 -10 -2 -10 7 0 10 -5 7 -10 -4 -6 -12 -7 -18 -3 -7 4 -5 -1 3 -12 8
-10 14 -27 12 -38 -3 -13 0 -17 10 -12 7 3 4 -1 -6 -9 -18 -15 -18 -16 -2 -16
9 0 14 -5 11 -10 -4 -6 -12 -7 -18 -3 -7 4 -6 0 2 -10 11 -14 11 -17 0 -18 -8
0 -5 -4 6 -9 17 -7 17 -9 3 -9 -11 -1 -15 -6 -12 -16 4 -8 11 -12 18 -8 6 3 6
1 -1 -8 -17 -17 -17 -32 0 -23 7 5 6 0 -3 -11 -9 -11 -10 -16 -3 -11 17 9 17
-6 0 -23 -9 -11 -9 -13 1 -7 8 5 12 -2 12 -26 0 -19 6 -40 13 -47 10 -10 8
-11 -8 -6 -20 7 -20 6 -1 -9 18 -14 15 -20 -6 -17 -4 0 -5 -6 -2 -14 4 -8 10
-12 16 -9 5 3 4 -3 -3 -14 -10 -16 -10 -24 -1 -34 9 -11 9 -18 -1 -28 -9 -10
-9 -11 0 -6 8 5 13 1 13 -11 0 -15 2 -16 10 -3 5 8 10 10 10 5 0 -6 -5 -16
-11 -22 -8 -8 -7 -13 2 -18 8 -6 10 -4 4 5 -5 8 -4 11 3 6 6 -4 8 -14 5 -23
-5 -12 -2 -15 8 -11 10 4 14 -3 14 -27 0 -18 -3 -31 -7 -29 -4 2 -10 -1 -14
-7 -4 -7 -3 -9 3 -6 6 4 13 -2 16 -13 4 -14 0 -20 -11 -20 -15 0 -15 -2 -2
-10 13 -8 9 -13 -10 -12 -12 1 -4 -84 9 -94 10 -8 11 -13 3 -18 -7 -4 -12 -15
-12 -24 0 -15 2 -15 11 -2 8 12 9 12 7 -5 -1 -11 1 -26 6 -34 6 -9 5 -12 -2
-7 -11 7 -9 -24 3 -44 3 -6 0 -10 -7 -10 -10 0 -10 -2 1 -9 8 -5 16 -17 17
-25 1 -9 -2 -14 -7 -10 -5 3 -9 0 -9 -5 0 -6 5 -11 10 -11 6 0 10 -5 10 -11 0
-5 -5 -7 -12 -3 -7 5 -8 3 -2 -7 4 -8 9 -21 11 -29 1 -8 7 -16 13 -18 7 -3 7
-9 -2 -20 -10 -12 -10 -16 0 -19 6 -3 12 -9 12 -14 0 -6 -6 -7 -12 -3 -10 5
-10 4 -1 -6 8 -8 9 -20 2 -37 -6 -15 -5 -22 1 -18 5 3 8 -7 5 -25 -2 -17 2
-36 11 -44 10 -11 11 -15 1 -19 -9 -3 -9 -7 2 -20 7 -9 18 -14 24 -10 6 3 7 1
3 -6 -4 -6 -12 -9 -17 -6 -5 3 -6 -1 -3 -9 3 -9 10 -16 16 -16 5 0 6 -5 3 -10
-4 -6 -1 -18 7 -27 11 -14 11 -16 -2 -8 -12 7 -13 6 -3 -7 7 -8 10 -18 6 -21
-3 -4 1 -9 10 -13 9 -3 14 -14 12 -26 -3 -15 -1 -17 9 -9 9 8 13 7 14 -2 6
-48 9 -59 18 -65 16 -12 40 -46 27 -38 -7 4 -13 2 -13 -3 0 -6 5 -11 10 -11 6
0 10 -7 10 -16 0 -9 5 -12 12 -8 9 5 9 2 -1 -9 -12 -15 -11 -17 8 -17 23 0 28
-15 9 -24 -7 -3 -2 -3 11 0 16 4 21 3 17 -5 -4 -6 0 -11 11 -11 15 0 16 -2 3
-10 -11 -7 -11 -10 -2 -10 8 0 10 -5 6 -12 -5 -9 -2 -9 9 1 15 11 17 11 17 -2
0 -24 32 -45 77 -49 8 -1 9 -7 2 -20 -5 -10 -6 -18 -2 -17 27 5 39 -4 41 -28
1 -15 8 -30 15 -35 9 -6 9 -8 -2 -8 -9 0 -5 -8 10 -21 13 -12 23 -25 22 -30
-2 -4 5 -5 14 -2 13 5 15 2 10 -11 -5 -14 -3 -17 8 -13 8 4 17 2 20 -4 4 -5
11 -6 17 -3 7 4 8 2 4 -5 -4 -6 -13 -8 -19 -5 -7 4 -3 -2 8 -13 15 -16 23 -18
34 -9 12 9 12 7 2 -13 -8 -15 -9 -21 -2 -17 6 4 14 0 17 -8 3 -9 10 -14 14
-11 4 3 10 -2 14 -10 3 -8 12 -15 19 -15 8 0 19 -10 26 -22 6 -13 9 -15 7 -5
-5 15 -3 16 15 7 11 -6 23 -18 26 -26 3 -7 9 -11 14 -8 5 3 9 -2 9 -10 0 -9 5
-16 11 -16 5 0 7 5 3 12 -4 6 -3 8 2 5 5 -3 9 -18 8 -34 -3 -54 -10 -53 388
-53 l369 0 -4 29 c-4 23 -2 28 9 24 8 -3 14 1 14 11 0 9 7 16 16 16 8 0 12 5
9 10 -3 6 -2 10 4 10 5 0 16 7 25 15 9 9 17 11 21 5 3 -5 1 -10 -4 -10 -6 0
-11 -5 -11 -11 0 -8 5 -8 15 1 8 7 15 19 15 27 0 8 4 12 9 9 5 -3 23 1 40 10
23 11 30 21 26 32 -4 12 -1 11 16 -4 22 -19 22 -19 11 3 -10 19 -9 20 10 15
17 -4 20 -2 15 11 -4 12 -1 15 14 12 11 -2 22 2 26 10 3 8 9 12 14 9 8 -5 13
10 10 29 -1 4 8 3 20 -4 19 -10 21 -9 16 5 -4 11 -3 15 4 11 6 -4 13 2 16 13
3 14 10 19 21 14 15 -5 15 -3 4 10 -11 14 -10 16 8 11 16 -4 19 -2 13 12 -4
13 -3 16 5 11 7 -4 12 -3 12 3 0 21 55 67 78 65 17 -1 20 2 13 9 -16 16 -14
24 11 48 13 12 17 18 9 14 -10 -6 -12 -4 -7 4 5 7 14 10 22 7 8 -3 11 0 8 8
-3 8 0 17 7 22 8 5 10 3 4 -7 -5 -8 -4 -11 1 -6 5 5 9 18 9 30 0 15 6 21 18
19 11 -2 15 2 11 13 -3 8 -1 15 5 15 6 0 11 -5 11 -12 0 -6 6 -3 14 8 10 13
11 23 4 31 -7 9 -7 13 1 13 7 0 9 5 5 12 -5 8 -2 9 11 4 15 -5 16 -4 6 8 -9
11 -9 16 0 22 8 5 9 3 4 -7 -8 -12 -6 -12 8 0 13 11 14 17 5 35 -11 20 -10 20
7 6 10 -8 16 -10 12 -4 -3 6 1 23 9 39 13 25 13 27 -3 14 -15 -13 -15 -12 -5
7 6 12 8 24 4 28 -3 4 2 4 12 0 14 -5 17 -4 12 4 -4 7 -2 12 3 12 6 0 11 6 11
14 0 8 6 17 13 19 9 4 8 6 -2 6 -11 1 -11 4 0 18 8 10 9 14 2 10 -8 -5 -11 0
-10 13 1 12 6 19 14 16 17 -7 16 -1 -3 18 -14 14 -14 16 0 16 10 0 13 6 9 17
-5 12 -3 14 7 8 10 -6 12 -4 7 8 -3 9 -3 16 1 16 19 -3 25 2 12 11 -13 9 -13
10 0 10 11 0 16 10 15 34 0 19 -3 32 -7 30 -4 -3 -5 2 -2 10 3 9 11 16 18 16
6 0 4 5 -4 10 -11 7 -11 10 -2 10 7 0 10 5 7 10 -4 6 -12 8 -18 4 -7 -3 -3 2
7 10 11 9 14 16 7 16 -7 0 -9 5 -4 12 12 21 12 38 0 38 -7 0 -5 5 3 10 12 8
12 10 1 10 -10 0 -11 3 -2 13 8 10 7 17 -2 27 -9 10 -9 11 1 6 6 -4 12 -2 12
3 0 6 -5 11 -11 11 -8 0 -7 6 2 17 8 9 9 14 4 11 -7 -4 -11 5 -10 23 0 16 4
28 10 25 5 -2 10 9 11 25 1 18 -3 26 -10 22 -6 -4 -6 0 1 9 7 8 9 19 5 24 -4
4 2 2 12 -6 14 -10 17 -11 12 -2 -4 7 -2 20 6 29 9 12 9 15 1 9 -7 -4 -13 -2
-13 3 0 6 6 11 13 11 8 0 7 4 -3 10 -13 9 -13 10 0 10 13 0 13 1 0 10 -8 5
-10 10 -5 10 6 0 11 9 12 20 1 13 -2 18 -10 13 -9 -5 -9 -3 -1 8 15 20 12 30
-14 64 -13 17 -20 23 -16 15 4 -8 3 -11 -1 -7 -12 10 -16 39 -5 32 5 -3 7 3 5
12 -2 10 -4 18 -5 18 -1 0 -3 8 -5 18 -2 9 2 17 8 17 7 0 5 5 -3 10 -11 7 -11
10 -2 10 7 0 10 5 7 10 -4 6 -12 8 -18 4 -7 -3 -5 1 5 8 11 9 13 19 7 29 -6
11 -2 23 12 37 11 12 16 22 12 22 -4 0 -1 5 9 10 13 8 14 14 5 34 -7 13 -16
22 -22 18 -5 -3 -4 1 3 10 9 11 10 18 2 23 -13 8 -13 25 1 25 5 0 7 -5 3 -12
-4 -6 -3 -8 4 -4 7 4 8 17 2 36 -5 19 -5 30 1 30 6 0 8 4 5 9 -4 5 0 12 6 14
7 3 4 6 -6 6 -19 1 -19 1 -1 14 13 10 15 16 6 21 -6 4 -8 13 -4 19 5 9 2 8 -8
0 -13 -11 -15 -9 -14 6 1 11 7 27 14 35 12 14 11 16 -3 10 -12 -5 -15 -2 -10
10 3 9 9 14 13 11 10 -6 7 33 -4 42 -4 5 -5 3 -1 -4 3 -6 1 -15 -6 -19 -7 -4
-10 -4 -6 1 4 4 3 16 -3 26 -8 15 -6 17 8 12 16 -6 16 -5 4 10 -7 9 -11 24 -7
32 3 9 2 13 -4 10 -6 -3 -10 -2 -10 4 0 5 6 12 13 14 7 3 4 6 -6 6 -10 1 -15
6 -12 11 4 6 11 7 17 4 7 -4 7 0 0 12 -5 11 -8 27 -7 37 2 9 -1 17 -7 17 -6 0
-6 6 2 15 10 12 9 16 -4 21 -12 5 -13 10 -5 25 8 15 6 19 -8 20 -16 0 -16 1 2
9 13 6 15 9 5 9 -13 1 -13 2 0 11 13 8 12 10 -3 10 -17 0 -17 1 -3 16 20 20
20 19 -6 45 -13 12 -17 18 -9 14 16 -9 8 8 -17 38 -17 19 -25 60 -10 51 4 -3
8 0 8 5 0 6 -5 11 -10 11 -6 0 -10 6 -9 13 1 6 1 23 -1 37 -1 23 -2 23 -10 5
-8 -19 -9 -18 -9 4 -1 18 -5 22 -22 18 -16 -4 -18 -3 -8 9 9 11 9 14 0 14 -7
0 -9 5 -5 13 6 9 4 9 -8 -1 -14 -11 -17 -10 -23 7 -3 12 -13 21 -22 21 -13 0
-13 3 -3 15 7 9 10 18 6 22 -3 3 -6 2 -6 -3 0 -5 -9 -10 -19 -10 -11 0 -19 3
-19 6 2 20 -4 29 -17 24 -8 -4 -15 -1 -15 6 0 6 -4 8 -10 5 -5 -3 -10 -1 -10
5 0 7 -6 8 -18 1 -12 -6 -23 -5 -36 5 -10 7 -23 11 -27 8 -5 -3 -18 11 -30 30
l-21 36 -857 0 c-472 0 -861 -3 -864 -7z m2108 -422 c3 -5 2 -12 -3 -15 -5 -3
-9 1 -9 9 0 17 3 19 12 6z m-1870 -51 c5 8 11 7 23 -2 13 -11 14 -11 7 2 -8
13 -7 13 8 1 14 -11 17 -11 17 0 0 11 2 11 10 -1 5 -8 10 -10 10 -4 0 6 7 11
15 11 8 0 12 -4 9 -9 -5 -8 9 -12 33 -9 7 1 23 -4 35 -10 20 -11 21 -10 11 3
-10 12 -10 14 5 13 9 0 24 -5 31 -10 11 -6 13 -4 9 7 -7 18 23 18 46 -1 14
-12 16 -11 9 5 -6 17 -5 18 12 4 17 -14 18 -13 12 5 -7 20 -7 20 8 0 10 -12
18 -16 23 -9 4 5 28 10 54 10 39 -1 44 -3 35 -15 -10 -12 -9 -14 5 -8 10 3 20
2 23 -4 4 -5 11 -6 17 -3 7 4 8 2 4 -5 -4 -6 -13 -9 -19 -5 -7 3 -4 -1 5 -9
14 -11 15 -16 5 -27 -7 -7 -7 -10 -2 -8 6 3 17 -1 25 -10 13 -14 13 -15 -1
-10 -12 5 -15 -2 -15 -32 1 -21 3 -38 6 -38 19 1 23 -4 10 -13 -12 -8 -12 -12
-2 -16 10 -4 9 -9 -5 -20 -10 -8 -13 -12 -7 -9 7 3 14 -1 18 -9 3 -8 0 -15 -7
-15 -8 0 -6 -4 3 -10 14 -9 7 -14 -15 -11 -5 1 -2 -5 7 -12 15 -12 15 -14 -5
-27 -26 -17 -49 -22 -41 -9 3 5 0 9 -5 9 -6 0 -11 -4 -11 -10 0 -5 -5 -10 -11
-10 -5 0 -8 4 -5 8 2 4 -6 8 -20 8 -14 0 -23 -5 -20 -11 2 -7 -8 -10 -26 -9
-25 2 -27 0 -16 -14 10 -12 10 -14 1 -8 -8 4 -13 2 -13 -6 0 -10 -3 -9 -10 2
-7 12 -11 10 -19 -10 -7 -19 -10 -20 -10 -7 -1 17 -2 17 -17 2 -10 -9 -20 -13
-23 -8 -3 4 -12 9 -20 11 -12 3 -12 0 -2 -12 9 -11 9 -16 0 -22 -8 -4 -9 -3
-5 4 12 20 -22 14 -43 -7 -25 -25 -77 -59 -69 -45 4 6 1 11 -6 11 -8 0 -12 -7
-9 -15 5 -11 1 -13 -16 -7 -15 4 -23 2 -27 -10 -5 -13 -9 -14 -15 -4 -6 10
-11 10 -23 0 -14 -11 -16 -11 -17 5 0 18 -1 18 -9 -1 -8 -18 -9 -18 -9 -2 -1
14 -6 17 -23 12 -13 -3 -18 -3 -13 2 14 11 17 33 5 33 -5 0 -10 11 -10 25 0
14 0 36 0 50 0 14 -4 25 -8 25 -5 0 -8 20 -8 44 1 24 4 42 8 40 5 -3 8 0 8 5
0 6 -6 11 -12 11 -9 0 -8 4 2 10 13 8 12 10 -4 10 -20 0 -20 0 0 15 11 8 14
14 6 15 -10 0 -10 5 -2 21 8 14 8 24 1 33 -7 9 -7 16 1 24 8 8 9 12 1 12 -6 0
-14 7 -17 16 -5 13 -3 14 6 6 10 -8 13 -4 14 14 1 13 -2 21 -7 18 -5 -3 -6 2
-3 11 5 11 10 13 19 5 11 -9 12 -6 8 12 -3 16 -2 19 5 10 7 -11 11 -10 16 4 6
16 8 16 25 0 13 -12 21 -14 26 -6z m1119 -18 c-5 15 -2 16 25 8 17 -4 35 -11
40 -14 5 -3 11 0 14 6 3 10 8 9 22 -2 15 -13 19 -13 23 -1 3 10 9 7 18 -10 7
-13 13 -19 14 -12 0 11 9 13 53 12 49 0 67 -5 63 -16 -3 -7 1 -10 10 -6 9 3
14 -1 14 -12 0 -9 5 -13 10 -10 14 9 12 -8 -2 -24 -11 -12 -9 -13 7 -7 16 6
18 5 8 -5 -14 -14 -18 -33 -5 -26 4 3 6 -15 5 -39 -1 -25 2 -42 7 -39 13 8 6
-21 -10 -41 -8 -10 -10 -15 -3 -11 6 4 14 3 17 -2 4 -5 2 -12 -4 -16 -7 -4 -6
-14 2 -28 11 -21 10 -21 -8 -7 -18 15 -18 14 -2 -11 13 -20 14 -29 5 -38 -9
-9 -9 -16 1 -31 9 -16 9 -18 -2 -14 -7 3 -19 -3 -27 -13 -13 -17 -13 -17 6 -3
19 14 19 14 6 -3 -15 -18 -15 -18 -29 0 -14 17 -14 16 -9 -7 6 -24 5 -24 -8
-6 -15 20 -15 20 -16 0 -1 -16 -2 -17 -6 -1 -5 20 -14 22 -32 5 -11 -11 -13
-10 -8 4 3 10 1 20 -5 24 -7 4 -8 3 -4 -4 4 -7 2 -12 -3 -12 -6 0 -11 5 -11
10 0 6 -7 10 -16 10 -8 0 -13 4 -10 9 3 5 -1 11 -9 14 -10 4 -12 1 -9 -11 3
-9 -1 -7 -8 6 -11 17 -16 20 -26 10 -9 -9 -12 -9 -12 0 0 7 -9 12 -20 12 -12
0 -33 11 -47 24 -14 13 -32 22 -39 19 -8 -3 -14 1 -14 8 -1 8 -7 3 -16 -11
-12 -20 -14 -21 -9 -4 4 14 1 21 -10 21 -8 0 -15 -4 -15 -9 0 -4 -5 -8 -11 -8
-5 0 -7 5 -4 10 6 10 -9 15 -30 10 -5 -1 -7 1 -3 5 4 4 0 14 -9 23 -14 14 -14
17 3 23 14 6 15 8 3 8 -11 1 -15 10 -13 36 2 20 6 40 9 45 3 5 0 12 -6 16 -8
5 -9 3 -4 -6 5 -9 4 -11 -4 -6 -6 4 -8 13 -4 19 14 22 13 39 -2 27 -11 -9 -12
-7 -8 11 5 17 3 20 -8 14 -8 -5 -5 2 5 14 20 22 20 22 0 15 -17 -7 -17 -6 -6
9 8 9 11 21 7 26 -3 7 0 8 10 5 12 -5 14 -2 8 12 -7 18 -6 18 11 2 22 -22 27
-23 19 -1 -4 9 -2 14 4 10 21 -13 63 -16 63 -4 0 7 4 6 10 -3 8 -13 10 -12 10
4 0 16 2 16 20 -5 13 -16 18 -18 14 -7z m-944 -396 c0 -3 -4 -8 -10 -11 -5 -3
-10 -1 -10 4 0 6 5 11 10 11 6 0 10 -2 10 -4z m-120 -66 c0 -5 -2 -10 -4 -10
-3 0 -8 5 -11 10 -3 6 -1 10 4 10 6 0 11 -4 11 -10z m1861 -137 c13 -16 12
-17 -3 -4 -17 13 -22 21 -14 21 2 0 10 -8 17 -17z m-1506 -143 c-6 -10 15 -14
44 -11 7 2 11 -2 7 -7 -3 -5 1 -9 9 -9 8 0 12 4 9 8 -2 4 0 11 6 14 6 4 9 1 8
-6 -2 -7 2 -13 9 -14 6 0 15 -4 20 -9 5 -5 2 -6 -7 -1 -8 4 -5 -2 8 -14 24
-23 29 -41 11 -41 -6 0 -7 -5 -2 -12 11 -19 13 -39 2 -32 -5 3 -6 11 -3 17 4
7 3 8 -2 4 -9 -8 -10 -13 -13 -40 0 -8 -11 -19 -23 -25 -13 -6 -17 -11 -10
-11 6 -1 12 -6 12 -12 0 -6 -7 -8 -16 -5 -14 5 -15 4 -4 -9 12 -15 11 -16 -12
-19 -7 0 -13 -6 -13 -13 0 -6 -4 -15 -9 -20 -5 -4 -7 -3 -3 3 3 5 -8 15 -24
21 -24 9 -28 9 -21 0 8 -9 4 -12 -13 -12 -13 0 -21 3 -19 7 7 11 -20 16 -38 6
-14 -7 -16 -5 -11 8 5 14 3 15 -17 4 -15 -8 -20 -8 -16 -1 4 6 1 14 -8 17 -9
3 -12 13 -9 22 4 13 2 12 -11 -3 -9 -11 -16 -15 -15 -10 3 22 -2 29 -11 15 -5
-8 -10 -10 -10 -3 0 7 -9 9 -22 5 -20 -5 -21 -3 -10 10 11 14 10 16 -6 11 -12
-3 -24 4 -35 21 -16 24 -16 25 0 19 15 -6 16 -4 6 8 -8 9 -9 20 -3 29 6 8 10
11 10 5 0 -5 4 -4 9 4 9 14 36 23 78 24 12 1 21 3 21 7 -2 18 4 23 13 10 8
-11 12 -12 16 -2 2 6 13 12 24 12 10 0 19 6 20 13 0 9 2 9 6 -1 4 -10 9 -9 24
4 18 16 19 17 13 1 -5 -13 -2 -16 10 -11 8 3 15 9 14 12 -1 13 2 22 8 22 3 0
2 -4 -1 -10z m655 -123 c0 6 9 11 20 10 11 -1 20 -5 20 -9 0 -4 7 -4 17 -1 11
4 14 3 9 -5 -5 -8 -1 -10 10 -5 13 5 15 3 9 -8 -7 -11 -5 -11 10 1 11 9 16 10
11 3 -4 -8 -1 -13 8 -13 9 0 15 -3 15 -7 -3 -21 2 -33 15 -33 10 0 12 -7 8
-22 -3 -14 -2 -19 6 -14 9 5 9 1 3 -17 -6 -14 -7 -28 -3 -32 3 -3 -1 -3 -10 0
-10 4 -22 -2 -32 -17 -9 -12 -16 -18 -16 -12 0 6 -7 11 -15 11 -9 0 -14 -6
-11 -12 2 -6 -2 -12 -10 -12 -7 0 -11 4 -9 8 3 3 -5 9 -18 13 -14 4 -26 0 -34
-11 -12 -16 -13 -16 -13 0 0 19 -15 23 -25 7 -4 -6 -11 -5 -19 3 -8 6 -12 15
-9 20 2 4 -3 7 -11 7 -9 0 -16 5 -16 11 0 5 6 7 13 3 8 -5 8 -2 -2 9 -11 14
-11 17 0 17 10 0 10 3 2 11 -13 13 4 62 18 53 5 -3 9 2 9 11 0 10 5 13 12 9 8
-5 9 -2 5 10 -4 10 -3 15 3 11 6 -3 10 0 10 7 0 9 3 9 10 -2 6 -9 10 -10 10
-3z m850 -22 c11 -13 10 -14 -4 -9 -9 3 -16 10 -16 15 0 13 6 11 20 -6z m-563
-471 c23 -6 40 -7 37 -3 -3 5 2 6 10 3 12 -5 13 -10 5 -26 -8 -15 -8 -19 0
-14 12 8 13 2 15 -56 1 -21 -3 -38 -8 -38 -5 0 -3 -7 4 -15 11 -13 10 -14 -6
-8 -16 6 -17 4 -6 -9 10 -12 10 -20 -2 -42 -8 -17 -16 -22 -18 -14 -3 7 -7 3
-10 -10 -4 -12 -2 -20 2 -17 5 3 8 -3 7 -14 0 -11 -4 -18 -8 -15 -4 2 -10 0
-14 -6 -3 -5 -1 -10 6 -10 9 0 9 -3 0 -14 -9 -11 -9 -15 1 -19 8 -3 6 -6 -6
-6 -15 -1 -16 -4 -6 -16 11 -13 10 -14 -5 -9 -13 5 -16 4 -11 -4 4 -7 2 -12
-4 -12 -6 0 -8 -4 -5 -10 3 -5 0 -10 -7 -10 -9 0 -9 -3 2 -10 13 -9 7 -14 -12
-11 -4 0 -4 -7 -1 -16 4 -9 2 -14 -3 -10 -5 3 -10 -3 -10 -14 0 -10 4 -19 9
-19 5 0 4 -6 -2 -14 -6 -7 -8 -22 -4 -31 5 -14 3 -16 -7 -10 -10 6 -12 4 -7
-9 6 -14 3 -17 -8 -12 -9 3 -13 2 -10 -4 3 -6 1 -10 -5 -10 -6 0 -9 -4 -6 -9
9 -14 -20 -21 -34 -8 -10 9 -12 8 -7 -5 6 -16 -5 -18 -38 -7 -15 6 -56 -26
-47 -37 4 -4 0 -3 -10 4 -11 9 -18 10 -23 2 -3 -5 -11 -10 -16 -10 -6 0 -7 6
-3 13 5 7 0 6 -11 -3 -11 -9 -16 -10 -11 -2 4 7 2 12 -4 12 -6 0 -8 5 -4 11 4
8 -1 9 -17 4 -17 -4 -20 -3 -10 3 8 6 11 17 8 26 -4 9 -1 16 6 17 7 0 3 4 -8
9 -13 6 -15 9 -5 9 16 1 18 51 5 104 -5 19 -3 27 6 27 11 0 11 3 -1 10 -13 9
-13 10 0 10 13 0 13 1 0 10 -11 7 -11 10 -2 10 10 0 10 5 2 20 -8 15 -8 20 2
21 10 0 10 2 -1 6 -11 5 -11 7 0 14 10 6 11 9 2 9 -7 0 -13 5 -13 11 0 5 4 8
9 4 5 -3 13 0 17 6 4 7 3 9 -2 6 -18 -11 -31 26 -19 50 7 13 14 21 17 18 8 -8
3 29 -7 44 -5 10 -4 12 3 7 7 -4 12 -2 12 3 0 6 -5 11 -11 11 -6 0 -9 6 -6 13
2 6 9 11 15 10 5 -1 8 6 5 16 -2 9 3 24 12 31 14 12 18 12 26 -1 8 -13 13 -6
10 13 0 4 11 3 26 -3 24 -9 25 -8 12 7 -13 16 -12 16 9 5 18 -10 23 -9 28 4 3
8 10 15 16 15 5 0 6 -4 3 -10 -3 -6 1 -7 9 -4 9 3 13 11 9 16 -4 7 3 9 20 6
18 -3 24 -1 20 8 -5 13 14 14 34 1 7 -5 10 0 6 15 -3 13 -1 19 4 13 4 -6 27
-15 50 -21z m-1128 -41 c-3 -21 2 -24 18 -12 15 13 15 12 4 -8 -7 -15 -8 -23
-1 -23 5 0 10 5 10 11 0 8 4 9 13 0 8 -6 17 -8 20 -4 4 3 7 2 7 -4 0 -11 29
-11 49 2 11 6 13 4 8 -8 -4 -11 -1 -17 9 -17 9 0 12 5 8 13 -4 6 6 1 22 -13
15 -14 23 -18 17 -10 -9 13 -7 15 17 15 16 1 26 -3 24 -7 -3 -5 -11 -5 -17 -2
-7 4 -9 3 -4 -1 4 -5 28 -9 52 -10 53 -1 83 -22 91 -65 4 -16 11 -27 16 -24 6
4 5 -3 -1 -14 -8 -15 -8 -23 0 -28 6 -3 9 -14 6 -24 -4 -14 -1 -17 12 -12 15
6 15 4 0 -18 -16 -25 -15 -55 1 -45 13 8 6 -21 -9 -39 -12 -14 -11 -16 5 -10
18 7 18 6 2 -12 -9 -11 -14 -25 -10 -31 4 -7 7 -32 7 -57 -1 -25 3 -43 7 -40
4 3 8 -7 9 -23 0 -15 2 -36 4 -46 2 -9 -1 -15 -6 -11 -5 3 -6 11 -3 17 4 7 4
9 0 5 -4 -3 -7 -9 -6 -13 3 -12 -44 -47 -48 -36 -2 6 -8 11 -13 11 -6 0 -8 -4
-5 -8 3 -5 -1 -9 -9 -9 -8 0 -15 4 -15 9 0 4 -5 8 -11 8 -5 0 -7 -5 -4 -10 4
-6 -5 -5 -19 2 -14 6 -26 15 -26 20 0 4 -6 8 -14 8 -8 0 -18 5 -22 12 -4 6 -3
8 2 5 5 -3 10 3 10 13 0 12 -7 17 -23 15 -19 -2 -21 1 -12 17 5 10 6 17 2 16
-12 -4 -62 50 -54 57 3 4 1 6 -4 5 -26 -6 -37 1 -31 17 4 10 4 14 0 11 -3 -4
-17 4 -31 18 -13 13 -29 21 -35 18 -7 -4 -8 -2 -4 5 4 6 13 8 19 5 7 -3 -5 10
-25 31 -21 20 -38 42 -38 48 0 7 -4 6 -11 -3 -8 -12 -9 -10 -4 7 4 15 0 25
-12 33 -16 10 -16 11 -1 6 10 -3 20 0 24 6 4 7 3 8 -4 4 -7 -4 -12 -2 -12 4 0
7 -7 9 -17 6 -10 -4 -14 -4 -10 0 4 4 2 13 -4 20 -6 8 -9 21 -5 29 3 9 2 13
-3 10 -5 -3 -12 -1 -16 5 -3 5 0 10 7 10 9 0 9 3 -2 10 -13 9 -13 10 0 10 13
0 13 1 0 10 -11 7 -12 10 -2 10 10 0 10 4 -2 16 -20 19 -20 25 -1 18 20 -8 19
6 -2 22 -17 13 -17 14 2 7 11 -3 17 -3 13 1 -4 5 -1 14 5 21 10 11 16 11 37
-3 23 -14 24 -14 11 1 -16 20 -1 23 18 5 7 -7 12 -8 11 -3 -3 14 -1 25 5 25 3
0 4 -3 4 -7z m9 -348 c-3 -3 -9 2 -12 12 -6 14 -5 15 5 6 7 -7 10 -15 7 -18z
m127 -124 c3 -5 2 -12 -3 -15 -5 -3 -9 1 -9 9 0 17 3 19 12 6z m1355 -25 c0
-3 -4 -8 -10 -11 -5 -3 -10 -1 -10 4 0 6 5 11 10 11 6 0 10 -2 10 -4z m-1809
-133 c13 -16 12 -17 -3 -4 -10 7 -18 15 -18 17 0 8 8 3 21 -13z"/>
<path d="M1246 2214 c-5 -14 -4 -15 9 -4 17 14 19 20 6 20 -5 0 -12 -7 -15
-16z"/>
<path d="M2116 2482 c-3 -5 1 -9 9 -9 8 0 12 4 9 9 -3 4 -7 8 -9 8 -2 0 -6 -4
-9 -8z"/>
<path d="M1865 1070 c-3 -5 -1 -10 4 -10 6 0 11 5 11 10 0 6 -2 10 -4 10 -3 0
-8 -4 -11 -10z"/>
<path d="M2187 963 c-4 -3 -7 -11 -7 -17 0 -6 5 -5 12 2 6 6 9 14 7 17 -3 3
-9 2 -12 -2z"/>
<path d="M1325 1000 c10 -11 20 -20 23 -20 3 0 -3 9 -13 20 -10 11 -20 20 -23
20 -3 0 3 -9 13 -20z"/>
<path d="M515 2929 c-4 -6 -5 -12 -2 -15 2 -3 7 2 10 11 7 17 1 20 -8 4z"/>
<path d="M2370 2929 c0 -5 5 -7 10 -4 6 3 10 8 10 11 0 2 -4 4 -10 4 -5 0 -10
-5 -10 -11z"/>
<path d="M2690 1835 c-11 -13 -10 -14 4 -9 9 3 16 10 16 15 0 13 -6 11 -20 -6z"/>
<path d="M2685 1340 c-3 -5 -1 -10 4 -10 6 0 11 5 11 10 0 6 -2 10 -4 10 -3 0
-8 -4 -11 -10z"/>
<path d="M533 645 c0 -8 4 -12 9 -9 5 3 6 10 3 15 -9 13 -12 11 -12 -6z"/>
<path d="M2387 453 c-4 -3 -7 -11 -7 -17 0 -6 5 -5 12 2 6 6 9 14 7 17 -3 3
-9 2 -12 -2z"/>
<path d="M2335 401 c-3 -5 -2 -12 3 -15 5 -3 9 1 9 9 0 17 -3 19 -12 6z"/>
</g>
</svg>
